<svg width="24" height="24" viewBox="0 0 24 24" fill="none" xmlns="http://www.w3.org/2000/svg">
<path d="M7.75 11.25C7.33579 11.25 7 11.5858 7 12C7 12.4142 7.33579 12.75 7.75 12.75H14.3636L11.235 15.7047C10.9339 15.9891 10.9203 16.4638 11.2047 16.765C11.4891 17.0661 11.9638 17.0797 12.265 16.7953L16.765 12.5453C16.915 12.4036 17 12.2063 17 12C17 11.7937 16.915 11.5964 16.765 11.4547L12.265 7.20474C11.9638 6.92033 11.4891 6.93389 11.2047 7.23503C10.9203 7.53617 10.9339 8.01085 11.235 8.29526L14.3636 11.25H7.75Z" fill="black"/>
<path fill-rule="evenodd" clip-rule="evenodd" d="M1 12C1 18.0751 5.92487 23 12 23C18.0751 23 23 18.0751 23 12C23 5.92487 18.0751 1 12 1C5.92487 1 1 5.92487 1 12ZM12 21.5C6.75329 21.5 2.5 17.2467 2.5 12C2.5 6.7533 6.75329 2.5 12 2.5C17.2467 2.5 21.5 6.7533 21.5 12C21.5 17.2467 17.2467 21.5 12 21.5Z" fill="black"/>
</svg>
