<svg width="42" height="42" viewBox="0 0 42 42" fill="none" xmlns="http://www.w3.org/2000/svg">
<path d="M22.7502 13.8775L22.7502 28.1225C22.7502 29.54 24.3427 30.3625 25.5152 29.5575L35.6127 22.435C36.5927 21.735 36.5927 20.265 35.6127 19.5825L25.5152 12.46C24.3427 11.6375 22.7502 12.46 22.7502 13.8775ZM19.8452 19.565L9.74766 12.4425C8.59266 11.62 6.98265 12.46 6.98265 13.8775L6.98265 28.1225C6.98265 29.54 8.57516 30.3625 9.74766 29.5575L19.8452 22.435C20.0762 22.2737 20.2649 22.0591 20.3952 21.8092C20.5255 21.5594 20.5935 21.2818 20.5935 21C20.5935 20.7183 20.5255 20.4406 20.3952 20.1908C20.2649 19.941 20.0762 19.7263 19.8452 19.565Z" fill="#404756"/>
</svg>
