<svg width="42" height="42" viewBox="0 0 42 42" fill="none" xmlns="http://www.w3.org/2000/svg">
<path d="M19.2498 28.1225V13.8775C19.2498 12.46 17.6573 11.6375 16.4848 12.4425L6.38734 19.565C5.40734 20.265 5.40734 21.735 6.38734 22.4175L16.4848 29.54C17.6573 30.3625 19.2498 29.54 19.2498 28.1225ZM22.1548 22.435L32.2523 29.5575C33.4073 30.38 35.0173 29.54 35.0173 28.1225V13.8775C35.0173 12.46 33.4248 11.6375 32.2523 12.4425L22.1548 19.565C21.9238 19.7263 21.7351 19.9409 21.6048 20.1908C21.4745 20.4406 21.4065 20.7182 21.4065 21C21.4065 21.2817 21.4745 21.5594 21.6048 21.8092C21.7351 22.059 21.9238 22.2737 22.1548 22.435Z" fill="#404756"/>
</svg>
