<svg width="24" height="24" viewBox="0 0 24 24" fill="none" xmlns="http://www.w3.org/2000/svg">
<path fill-rule="evenodd" clip-rule="evenodd" d="M6.21901 6.23797C6.35942 6.09795 6.54976 6.01931 6.74821 6.01931C6.94667 6.01931 7.137 6.09795 7.27742 6.23797L11.9903 10.9433L16.7032 6.23797C16.7718 6.16451 16.8545 6.10559 16.9463 6.06473C17.0382 6.02386 17.1374 6.00189 17.2379 6.00012C17.3385 5.99835 17.4383 6.01681 17.5316 6.05442C17.6248 6.09202 17.7095 6.14799 17.7807 6.21899C17.8518 6.28998 17.9078 6.37455 17.9455 6.46765C17.9832 6.56075 18.0017 6.66047 17.9999 6.76086C17.9981 6.86125 17.9761 6.96025 17.9352 7.05197C17.8942 7.14368 17.8352 7.22622 17.7617 7.29467L13.0487 12L17.7617 16.7053C17.8352 16.7738 17.8942 16.8563 17.9352 16.948C17.9761 17.0397 17.9981 17.1388 17.9999 17.2391C18.0017 17.3395 17.9832 17.4392 17.9455 17.5323C17.9078 17.6254 17.8518 17.71 17.7807 17.781C17.7095 17.852 17.6248 17.908 17.5316 17.9456C17.4383 17.9832 17.3385 18.0017 17.2379 17.9999C17.1374 17.9981 17.0382 17.9761 16.9463 17.9353C16.8545 17.8944 16.7718 17.8355 16.7032 17.762L11.9903 13.0567L7.27742 17.762C7.13546 17.8941 6.94769 17.966 6.75368 17.9626C6.55967 17.9592 6.37457 17.8807 6.23736 17.7437C6.10015 17.6067 6.02156 17.4219 6.01814 17.2282C6.01471 17.0345 6.08673 16.8471 6.21901 16.7053L10.9319 12L6.21901 7.29467C6.07877 7.15448 6 6.96445 6 6.76632C6 6.56819 6.07877 6.37815 6.21901 6.23797Z" fill="black"/>
</svg>
