<?xml version="1.0" encoding="utf-8"?>
<!-- Generator: Adobe Illustrator 26.3.1, SVG Export Plug-In . SVG Version: 6.00 Build 0)  -->
<svg version="1.1" id="Layer_1" xmlns="http://www.w3.org/2000/svg" xmlns:xlink="http://www.w3.org/1999/xlink" x="0px" y="0px"
	 width="300px" height="300px" viewBox="0 0 300 300" style="enable-background:new 0 0 300 300;" xml:space="preserve">
<style type="text/css">
	.st0{fill:#F3E8DA;}
	.st1{fill:#A1CBD7;}
	.st2{fill:#DFB1D2;}
	.st3{fill:#F69A93;}
	.st4{fill:#F9BE7C;}
	.st5{fill:#010101;}
</style>
<g>
	<g>
		<path class="st0" d="M84.16,232.42c-8.61,2.84-13.25-8.93-15.87-15.34c-10.44,25.36-27.66,14.79-15.99-8.3
			c-25.99,15.98-39.63-1.52-11.04-16.42c-31.27-5.49-17.79-23.66,6.49-18.07c-22.49-23.93-6.76-38.5,14.66-11.72
			c-2.06-23.08,19.33-32.22,20.93-5.23c21.8-25.43,25.86,2.26,10.35,18.85c33.72-3.83,39.55,20.74,2.39,20.94
			c17.56,13.13,12.95,34.12-8.5,16.95C88.79,220.03,90.3,229.1,84.16,232.42z"/>
	</g>
	<path class="st1" d="M211.75,145.81c-1.45-3.78-3.02-7.42-4.74-10.91c-7.45-15.16-17.12-26.03-28.73-32.31
		c-10.96-5.93-24.17-7.79-38.22-5.37c-23.59,4.05-42.34,18.42-50.66,38.66c-0.17,0.43-0.34,0.86-0.5,1.3
		c-1.52,4.17-2.7,8.45-3.59,12.79c0.06,0.24,0.13,0.47,0.18,0.72c4.63-4.41,8.76-6.64,12.32-6.64c3.19,0,5.8,1.79,7.15,4.91
		c0.57,1.31,0.91,2.9,1.02,4.69c2.61-9.17,6.52-16.89,11.68-22.94c8.15-9.55,19.66-15.14,31.58-15.33
		c9.48-0.15,18.1,2.92,25.64,9.12c6.06,4.98,11.44,12.01,15.99,20.9c1.33,2.6,2.58,5.34,3.75,8.2c1.13-0.29,2.36-0.45,3.7-0.45
		c4.28,0,9.05,1.47,13.72,4.14C211.37,152.97,211.27,149.1,211.75,145.81z"/>
	<path class="st2" d="M187.91,86.77c-4.09-2.39-8.5-4.31-13.16-5.75c-10.86-3.36-23.04-4.08-35.43-1.99
		c-15.27,2.57-29.52,8.98-41.21,18.55c-11.84,9.69-20.8,22.44-25.92,36.87c-0.44,1.24-0.83,2.51-1.23,3.78
		c0.91-0.27,1.84-0.42,2.77-0.42c2.99,0,6.18,1.5,8.61,5.1c0.59-2.09,1.23-4.15,1.95-6.16c8.34-23.01,28.9-39.42,55.01-43.9
		c15.04-2.58,29.25-0.56,41.09,5.85c12.44,6.73,22.73,18.26,30.6,34.26c1.02,2.07,1.97,4.2,2.9,6.36c0.22-0.38,0.44-0.76,0.69-1.09
		c1.67-2.21,3.98-3.43,6.49-3.43c1.45,0,2.87,0.39,4.24,1.11c-0.73-1.91-1.49-3.79-2.27-5.63
		C214.38,109.97,202.56,95.34,187.91,86.77z"/>
	<path class="st3" d="M243.37,137.44c-6.71-23.23-18.23-42.19-33.32-54.81c-23.69-19.81-53.48-21.08-74.3-18.65
		c-5.87,0.73-11.63,2.48-15.99,3.92C107.9,71.82,96.1,78.26,85.64,86.55C72.82,96.7,62.84,110.1,56.78,125.3
		c-2.8,7.02-4.78,14.53-5.95,22.61c2.82,1.63,5.77,3.96,8.75,6.94c0.7-5.15,2.6-9.62,5.54-12.83c0.05-0.06,0.11-0.11,0.16-0.16
		c0.82-3.03,1.7-6.01,2.73-8.91c5.39-15.19,14.82-28.62,27.29-38.82c12.28-10.05,27.25-16.79,43.28-19.49
		c18.73-3.15,37.04-0.21,51.57,8.29c15.49,9.06,27.93,24.4,36.97,45.58c2.21,5.17,4.18,10.63,5.95,16.32
		c1.13,2.2,2.15,4.72,3.04,7.54c2.74-3.88,5.94-6.51,9.09-8.06C244.62,142,244.02,139.7,243.37,137.44z"/>
	<path class="st0" d="M222.3,232.56c-8.96-1.43-7.66-14.02-7.04-20.92c-20.92,17.73-31.36,0.42-10.39-14.72
		c-30.43,2.25-34.5-19.56-2.26-19.66c-25.25-19.24-4.93-29.18,14.07-13.07c-8.97-31.59,11.69-37.3,18.41-3.67
		c8.78-21.44,31.97-19.73,21,4.97c31.05-12.57,21.93,13.89,0.54,21.5c31.71,12.09,25.6,36.59-7.5,19.7
		c9.56,19.73-4.18,36.26-15.34,11.15C232.1,223.69,229.27,232.43,222.3,232.56z"/>
	<g>
		<path class="st4" d="M70.45,168.68c-3.78,0.3-7.47,1.72-10.48,4.42c-4.67,4.2-7.16,10.81-6.58,17.06
			c1.31,14.18,17.77,21.77,29.19,13.08c5.29-4.03,9.3-11.28,8.75-18.04C90.43,174.42,80.15,167.9,70.45,168.68z"/>
		<path class="st4" d="M239.41,169.65c-3.5-1.47-7.43-1.91-11.34-0.89c-6.07,1.58-11.32,6.32-13.68,12.13
			c-5.35,13.19,5.77,27.5,19.91,25.03c6.55-1.15,13.45-5.74,16.06-12C254.53,183.93,248.38,173.41,239.41,169.65z"/>
	</g>
	<g>
		<g>
			<g>
				<g>
					<path class="st5" d="M65.77,180.21c-0.99,0.18-1.55,1.37-1.25,2.65c0.29,1.28,1.33,2.17,2.32,1.99
						c0.99-0.18,1.55-1.37,1.25-2.65C67.79,180.91,66.76,180.02,65.77,180.21z"/>
				</g>
			</g>
			<path class="st5" d="M81.65,181.8c-0.33-0.09-0.72,0.02-0.96,0.26c-0.22,0.23-0.3,0.53-0.21,0.86c0.32,1.17,0.58,2.43,0.8,3.84
				c0.63,4.12-1.34,8.05-4.8,9.56c-4.79,2.09-9.29,0.1-11.09-2.83c-0.13-0.22-0.26-0.45-0.38-0.69c-0.69-1.38-1.08-2.93-1.45-4.43
				c-0.12-0.48-0.24-0.97-0.37-1.44c-0.09-0.33-0.21-0.69-0.54-0.86c-0.19-0.1-0.42-0.1-0.63-0.01c-0.27,0.12-0.49,0.37-0.57,0.65
				c-0.11,0.39-0.01,0.8,0.07,1.14c0.61,2.55,1.3,5.43,3.09,7.63c2.5,3.05,6.84,4.24,10.9,3.12c0.4-0.11,0.79-0.24,1.19-0.4
				c2.28-0.91,4.11-2.48,5.13-4.41c1.09-2.05,1.6-4.51,1.37-6.58c-0.18-1.61-0.48-3.21-0.91-4.77
				C82.17,182.1,81.95,181.88,81.65,181.8z"/>
			<g>
				<g>
					<path class="st5" d="M75.02,178.26c-0.99,0.18-1.55,1.37-1.25,2.65c0.29,1.28,1.33,2.17,2.32,1.99
						c0.99-0.18,1.55-1.37,1.25-2.65C77.04,178.97,76.01,178.08,75.02,178.26z"/>
				</g>
			</g>
		</g>
		<g>
			<g>
				<g>
					<path class="st5" d="M229.96,177.74c-0.96-0.29-2,0.51-2.33,1.78c-0.33,1.27,0.18,2.54,1.14,2.83c0.96,0.29,2-0.51,2.33-1.78
						C231.43,179.29,230.92,178.03,229.96,177.74z"/>
				</g>
			</g>
			<path class="st5" d="M243.33,186.45c-0.26-0.23-0.65-0.31-0.98-0.21c-0.3,0.1-0.51,0.33-0.58,0.67c-0.25,1.19-0.6,2.42-1.05,3.77
				c-1.33,3.95-4.89,6.53-8.65,6.28c-5.21-0.34-8.3-4.18-8.55-7.61c-0.02-0.26-0.03-0.52-0.02-0.79c0.02-1.54,0.39-3.09,0.74-4.6
				c0.11-0.49,0.23-0.97,0.33-1.45c0.07-0.33,0.13-0.71-0.08-1.01c-0.13-0.18-0.33-0.28-0.56-0.3c-0.3-0.02-0.61,0.1-0.81,0.32
				c-0.28,0.3-0.38,0.71-0.46,1.04c-0.63,2.54-1.35,5.42-0.76,8.2c0.82,3.85,4.13,6.91,8.25,7.77c0.4,0.08,0.82,0.15,1.24,0.19
				c2.45,0.24,4.79-0.32,6.58-1.56c1.91-1.32,3.49-3.27,4.24-5.22c0.58-1.51,1.05-3.08,1.38-4.66
				C243.65,186.96,243.56,186.66,243.33,186.45z"/>
			<g>
				<g>
					<path class="st5" d="M239.07,180.26c-0.96-0.29-2,0.51-2.33,1.78c-0.33,1.27,0.18,2.54,1.14,2.83c0.96,0.29,2-0.51,2.33-1.78
						S240.03,180.55,239.07,180.26z"/>
				</g>
			</g>
		</g>
	</g>
</g>
</svg>
