<svg width="98" height="96" viewBox="0 0 98 96" fill="none" xmlns="http://www.w3.org/2000/svg">
<path d="M42.3 95.56C33.34 94.13 34.64 81.54 35.26 74.64C14.34 92.37 3.89998 75.06 24.87 59.92C-5.56002 62.17 -9.63001 40.36 22.61 40.26C-2.64001 21.02 17.68 11.08 36.68 27.19C27.71 -4.39999 48.37 -10.11 55.09 23.52C63.87 2.08001 87.06 3.79001 76.09 28.49C107.14 15.92 98.02 42.38 76.63 49.99C108.34 62.08 102.23 86.58 69.13 69.69C78.69 89.42 64.95 105.95 53.79 80.84C52.1 86.69 49.27 95.43 42.3 95.56Z" fill="#F3E8DA"/>
<path d="M59.41 32.65C55.91 31.18 51.98 30.74 48.07 31.76C42 33.34 36.75 38.08 34.39 43.89C29.04 57.08 40.16 71.39 54.3 68.92C60.85 67.77 67.75 63.18 70.36 56.92C74.53 46.93 68.38 36.41 59.41 32.65Z" fill="#F9BE7C"/>
</svg>
