<svg width="99" height="93" viewBox="0 0 99 93" fill="none" xmlns="http://www.w3.org/2000/svg">
<path d="M61.16 92.42C52.55 95.26 47.91 83.49 45.29 77.08C34.85 102.44 17.63 91.87 29.3 68.78C3.31001 84.76 -10.33 67.26 18.26 52.36C-13.01 46.87 0.470011 28.7 24.75 34.29C2.26001 10.36 17.99 -4.20999 39.41 22.57C37.35 -0.509989 58.74 -9.65 60.34 17.34C82.14 -8.09 86.2 19.6 70.69 36.19C104.41 32.36 110.24 56.93 73.08 57.13C90.64 70.26 86.03 91.25 64.58 74.08C65.79 80.03 67.3 89.1 61.16 92.42Z" fill="#F3E8DA"/>
<path d="M47.45 28.68C43.67 28.98 39.98 30.4 36.97 33.1C32.3 37.3 29.81 43.91 30.39 50.16C31.7 64.34 48.16 71.93 59.58 63.24C64.87 59.21 68.88 51.96 68.33 45.2C67.43 34.42 57.15 27.9 47.45 28.68Z" fill="#F9BE7C"/>
<path d="M42.77 40.21C41.78 40.39 41.22 41.58 41.52 42.86C41.81 44.14 42.85 45.03 43.84 44.85C44.83 44.67 45.39 43.48 45.09 42.2C44.79 40.91 43.76 40.02 42.77 40.21Z" fill="#010101"/>
<path d="M58.65 41.8C58.32 41.71 57.93 41.82 57.69 42.06C57.47 42.29 57.39 42.59 57.48 42.92C57.8 44.09 58.06 45.35 58.28 46.76C58.91 50.88 56.94 54.81 53.48 56.32C48.69 58.41 44.19 56.42 42.39 53.49C42.26 53.27 42.13 53.04 42.01 52.8C41.32 51.42 40.93 49.87 40.56 48.37C40.44 47.89 40.32 47.4 40.19 46.93C40.1 46.6 39.98 46.24 39.65 46.07C39.46 45.97 39.23 45.97 39.02 46.06C38.75 46.18 38.53 46.43 38.45 46.71C38.34 47.1 38.44 47.51 38.52 47.85C39.13 50.4 39.82 53.28 41.61 55.48C44.11 58.53 48.45 59.72 52.51 58.6C52.91 58.49 53.3 58.36 53.7 58.2C55.98 57.29 57.81 55.72 58.83 53.79C59.92 51.74 60.43 49.28 60.2 47.21C60.02 45.6 59.72 44 59.29 42.44C59.17 42.1 58.95 41.88 58.65 41.8Z" fill="#010101"/>
<path d="M52.02 38.26C51.03 38.44 50.47 39.63 50.77 40.91C51.06 42.19 52.1 43.08 53.09 42.9C54.08 42.72 54.64 41.53 54.34 40.25C54.04 38.97 53.01 38.08 52.02 38.26Z" fill="#010101"/>
</svg>
