<svg width="98" height="96" viewBox="0 0 98 96" fill="none" xmlns="http://www.w3.org/2000/svg">
<path d="M42.3 95.56C33.34 94.13 34.64 81.54 35.26 74.64C14.34 92.37 3.89998 75.06 24.87 59.92C-5.56002 62.17 -9.63001 40.36 22.61 40.26C-2.64001 21.02 17.68 11.08 36.68 27.19C27.71 -4.39999 48.37 -10.11 55.09 23.52C63.87 2.08001 87.06 3.79001 76.09 28.49C107.14 15.92 98.02 42.38 76.63 49.99C108.34 62.08 102.23 86.58 69.13 69.69C78.69 89.42 64.95 105.95 53.79 80.84C52.1 86.69 49.27 95.43 42.3 95.56Z" fill="#F3E8DA"/>
<path d="M59.41 32.65C55.91 31.18 51.98 30.74 48.07 31.76C42 33.34 36.75 38.08 34.39 43.89C29.04 57.08 40.16 71.39 54.3 68.92C60.85 67.77 67.75 63.18 70.36 56.92C74.53 46.93 68.38 36.41 59.41 32.65Z" fill="#F9BE7C"/>
<path d="M49.96 40.74C49 40.45 47.96 41.25 47.63 42.52C47.3 43.79 47.81 45.06 48.77 45.35C49.73 45.64 50.77 44.84 51.1 43.57C51.43 42.29 50.92 41.03 49.96 40.74Z" fill="#010101"/>
<path d="M63.33 49.45C63.07 49.22 62.68 49.14 62.35 49.24C62.05 49.34 61.84 49.57 61.77 49.91C61.52 51.1 61.17 52.33 60.72 53.68C59.39 57.63 55.83 60.21 52.07 59.96C46.86 59.62 43.77 55.78 43.52 52.35C43.5 52.09 43.49 51.83 43.5 51.56C43.52 50.02 43.89 48.47 44.24 46.96C44.35 46.47 44.47 45.99 44.57 45.51C44.64 45.18 44.7 44.8 44.49 44.5C44.36 44.32 44.16 44.22 43.93 44.2C43.63 44.18 43.32 44.3 43.12 44.52C42.84 44.82 42.74 45.23 42.66 45.56C42.03 48.1 41.31 50.98 41.9 53.76C42.72 57.61 46.03 60.67 50.15 61.53C50.55 61.61 50.97 61.68 51.39 61.72C53.84 61.96 56.18 61.4 57.97 60.16C59.88 58.84 61.46 56.89 62.21 54.94C62.79 53.43 63.26 51.86 63.59 50.28C63.65 49.96 63.56 49.66 63.33 49.45Z" fill="#010101"/>
<path d="M59.07 43.26C58.11 42.97 57.07 43.77 56.74 45.04C56.41 46.31 56.92 47.58 57.88 47.87C58.84 48.16 59.88 47.36 60.21 46.09C60.54 44.82 60.03 43.55 59.07 43.26Z" fill="#010101"/>
</svg>
